<?xml version="1.0" encoding="utf-8"?>
<!-- Generator: Adobe Illustrator 25.4.1, SVG Export Plug-In . SVG Version: 6.00 Build 0)  -->
<svg version="1.1" id="Layer_1" xmlns="http://www.w3.org/2000/svg" xmlns:xlink="http://www.w3.org/1999/xlink" x="0px" y="0px"
	 viewBox="0 0 612 792" style="enable-background:new 0 0 612 792;" xml:space="preserve">
<style type="text/css">
	.st0{fill:#FFFFFF;}
	.st1{font-family:'PixoRetoSP-Regular';}
	.st2{font-size:126.065px;}
</style>
<g>
	<path d="M323.93,611.45c-0.25-1.25-0.83-2.54-0.69-3.74c1.56-12.85,7.74-24,11.96-35.88c1.25-3.53,1.8-7.4,2.26-11.17
		c0.67-5.44,1.88-10.62,4.76-15.26c0.88-1.41,1.7-2.87,2.48-4.34c3.8-7.21,3.47-9.83-1.51-16.05c-1.39-1.73-2.26-3.91-3.64-6.35
		c-0.82,1.38-1.64,2.91-2.59,4.34c-1.04,1.55-2.2,3.02-3.51,4.79c0.97-0.14,1.63-0.24,3.14-0.46c-1.14,1.44-1.7,2.52-2.55,3.17
		c-4.4,3.36-9.09,5.95-14.81,5.18c-3.61-0.49-7.23-0.89-10.81-1.57c-1.65-0.31-3.48-0.82-4.73-1.88c-2.6-2.22-4.77-1.61-6.82,0.5
		c-3.59,3.71-7.58,5.25-12.77,4.66c-5.58-0.64-9.08,3.71-8.63,9.68c0.49,6.51,0.83,13.04,1.61,19.51c0.51,4.27,2.53,7.74,5.3,11.21
		c5.38,6.73,7.26,15.17,7.44,23.93c0.02,0.73-0.91,1.49-1.4,2.23c-0.57-0.85-1.57-1.66-1.65-2.56c-0.76-8.53-4.8-15.8-7.93-23.42
		c-0.51-1.25-1.44-2.31-2.47-3.36c-0.03,5.73-1.83,10.46-4.89,15.04c-2.03,3.04-2.76,7.02-4.25,10.5c-0.62,1.45-1.69,2.67-3.1,3.69
		c-0.26-5.29,0.83-10.04,2.96-14.58c2.08-4.41,4.03-8.9,5.9-13.41c2.8-6.77-0.77-13.32-0.99-20c-0.07-2.16-2.27-4.5-3.96-6.27
		c-1.8-1.88-4.01-2.33-6.22,0c-0.9,0.95-2.75,0.91-3.62,1.87c-2.03,2.23-3.76,4.76-5.52,7.24c-0.56,0.79-0.61,2.08-1.28,2.64
		c-0.8,0.67-2.01,0.8-3.04,1.17c-0.13-1.09-0.67-2.38-0.31-3.25c2.35-5.58,6-10.06,11.13-13.54c-1.83-3.54-4.52-6.04-7.8-7.7
		c-2.28-1.15-4.45,0.19-5.46,2.24c-1.29,2.64-1.95,5.64-2.8,8.5c-0.98,3.29-1.86,6.6-2.82,9.9c-0.77,2.67-1.83,5.29-2.26,8.02
		c-0.22,1.39,0.31,3.23,1.1,4.43c5.15,7.79,6.36,16.31,4.68,25.46c-0.12,0.66-0.19,1.43-0.56,1.92c-0.54,0.71-1.34,1.21-2.03,1.8
		c-0.34-0.85-0.99-1.71-0.98-2.56c0.02-3.03,0.79-6.15,0.29-9.06c-0.72-4.24-1.94-8.48-3.59-12.42c-2.06-4.94-2.73-9.96-2.11-15.16
		c0.2-1.64,1.86-3.04,2.32-4.71c1.23-4.41,2.3-8.89,3.18-13.39c1.35-6.85,2.26-8.14,6.79-8.59c6.53-0.65,11.84,1.99,13.55,7.14
		c0.72,2.18,1.85,2.73,3.83,3.25c3.58,0.93,6.8,2.9,7.76-3.45c0.34-2.27,3.1-4.13,5-6.48c-1.36-1.54-2.47-3.56-4.13-4.52
		c-3.11-1.79-4.35-3.84-2.72-7.74c-1.3,0.65-2.6,1.3-3.89,1.96c-4.06,2.1-8.09,1.01-9.98-3.34c-1.27-2.93-3.17-4.21-5.87-5.09
		c-6.49-2.12-8.64-5.15-9.25-12.13c-0.28-3.13-0.77-6.25-1.32-9.35c-0.99-5.67-0.12-10.68,3.92-14.92
		c3.58-3.75,3.6-11.33-0.65-14.55c-5.32-4.03-7.15-9.87-8.6-15.73c-2.54-10.2-4.22-20.64-6.34-30.97c-0.56-2.74-1.28-5.48-2.18-8.12
		c-4.2-12.34-7.42-24.89-9.14-37.93c-0.52-3.92-2.93-7.56-4.41-11.36c-1.89-4.85-4.09-9.62-5.45-14.63
		c-1.1-4.04-1.17-8.4-1.71-12.79c2.62-0.6,3.59,0.32,3.96,2.72c0.35,2.3,1.17,4.52,1.72,6.79c0.26,1.07,0.77,2.28,0.51,3.23
		c-1.15,4.21,0.04,7.94,2.21,11.22c4.11,6.2,5.47,13.19,6.96,20.44c2.47,11.97,6.2,23.65,9.11,35.53
		c1.79,7.28,3.12,14.68,4.51,22.06c1.43,7.57,3.64,14.6,9.88,19.48c1.13,0.88,1.81,2.42,2.65,3.59c2.73-2.73,5.48-5.46,8.2-8.22
		c0.19-0.19,0.26-0.63,0.21-0.92c-0.6-3.98-1.5-7.93-1.77-11.92c-0.23-3.43,0.15-6.91,0.44-10.36c0.23-2.76,0.69-5.31-2.46-6.91
		c-0.83-0.42-0.95-2.61-1.22-4.02c-0.23-1.2,0.07-2.58-0.35-3.67c-3.42-8.84-7.03-17.61-10.42-26.46c-1.68-4.38-2.98-8.92-4.5-13.36
		c-2.02-5.87-3.35-11.82-2.86-18.17c0.32-4.09-0.3-7.98-3.14-11.34c-0.77-0.91-0.57-3.41,0.01-4.79c1.29-3.09,1.19-5.92-0.33-8.73
		c-1.11-2.06-2.16-2.84-4.83-1.41c-3.1,1.66-6.9,1.92-10.43,2.62c-0.64,0.13-1.42-0.58-2.14-0.9c-0.01-0.34-0.02-0.69-0.03-1.03
		c1.44-0.37,2.88-1.06,4.32-1.05c4.44,0.02,8.06-1.34,9.9-5.93c1.98-4.95,1.15-9.66-2.13-13.56c-1.77-2.1-2.2-4.05-2.34-6.8
		c-0.58-10.9-1.73-21.72-5.69-32.02c-1.12-2.91-2.12-6.12,1.27-9.2c3.42-3.1,2.16-7.53-2.48-12.13c-0.21,0.03-0.51-0.02-0.6,0.11
		c-3.55,4.87-8,6.73-13.76,4.94c-2.24-0.69-3.57,0.42-3.27,2.99c0.29,2.43,0.56,4.9,1.21,7.24c0.96,3.42,2.26,6.73,3.52,10.42
		c1.22,0,2.87,0,4.51,0c0.11,0.18,0.21,0.37,0.32,0.55c-0.89,0.57-1.75,1.58-2.66,1.63c-3,0.18-3.46,2.2-3.23,4.6
		c0.78,8.39,1.62,16.77,2.55,25.15c0.54,4.9,1.28,9.78,1.95,14.67c0.51,3.72,1.05,7.43,1.62,11.42c-2.02,0.37-3.25-1.27-3.72-3.42
		c-0.5-2.28-0.51-4.68-0.78-7.03c-0.66-5.79-0.93-11.68-2.1-17.36c-1.72-8.37-2.3-16.73-1.51-25.2c0.4-4.27-0.23-8.2-1.81-12.18
		c-2.74-6.87-4.54-14.05-4.4-21.59c0.03-1.42,0.1-3.15,0.84-4.19c4.98-7.02,4.2-15.15,4.1-23.08c-0.04-3.32,0.07-6.84-3.93-8.76
		c-1.24-0.59-1.84-4-1.72-6.05c0.14-2.36,1.35-4.66,2.19-6.95c0.42-1.14,1.61-2.26,1.5-3.29c-0.55-5.54,3.65-9.06,4.96-13.75
		c0.62-2.23,0.93-4.58,1.2-6.9c0.45-3.9,0.38-7.92,1.22-11.71c1.15-5.19,6.23-7.93,10.77-5.74c1.71,0.83,3.12,3.27,3.79,5.29
		c0.63,1.9,0.49,4.33,0.01,6.34c-1.23,5.08-0.94,9.98,0.31,15c0.56,2.23,0.49,4.7,0.4,7.05c-0.44,12.51-1.02,25.01-1.42,37.52
		c-0.04,1.15,0.54,2.64,1.32,3.45c5.65,5.85,6.27,10.24,2.46,17.44c-0.54,1.02-0.46,2.48-0.42,3.73c0.08,2.78,1.13,5.85,0.34,8.27
		c-2.11,6.48-0.87,12.69,0.14,19.01c1.2,7.55,2.34,15.11,3.63,22.64c0.38,2.19,0.79,4.57,1.89,6.4c2.89,4.79,3.64,9.99,3.85,15.48
		c0.07,1.76,1.12,3.47,1.67,5.22c0.5,1.58,1.1,3.15,1.35,4.78c0.74,4.88,1.39,9.78,1.97,14.69c0.41,3.46,0.91,6.95,0.89,10.42
		c-0.03,5.78,1.8,11.01,3.61,16.31c2.68,7.84,5.05,15.81,7.87,23.59c2,5.52,4.51,10.84,7.04,16.82c2.02-8.32,1.44-15.75-0.27-23.19
		c-2.79-12.14-5.43-24.32-8.29-36.44c-0.29-1.23-1.45-2.54-2.54-3.19c-4.61-2.76-6.36-7.38-7.61-12.35c-0.2-0.8,0.12-1.74,0.22-2.62
		c0.74-6.49,1.38-12.69-2.66-18.76c-2.02-3.03-2.58-7.69-2.53-11.59c0.19-15.21,0.9-30.41,1.38-45.61c0.2-6.31,0.7-12.65,0.34-18.93
		c-0.21-3.66-1.9-7.21-2.86-10.83c-0.51-1.92-1.3-3.88-1.24-5.81c0.29-9.58,0.62-19.17,1.38-28.71c0.21-2.6,1.64-5.27,3.06-7.52
		c1.37-2.17,2.06-4.02,1.84-6.79c-0.45-5.73-1.04-11.55,2.58-16.87c0.81-1.19-0.12-5.11-1.43-6.22c-3.78-3.21-3.68-6.78-2.34-10.9
		c0.24-0.74,0.47-1.53,0.89-2.17c2.56-3.98,3.48-7.94,1.15-12.56c-1.39-2.76-0.26-5.57,1.86-7.65c2.23-2.18,2.91-4.81,2.93-7.9
		c0.04-4.84,0.21-9.68,0.51-14.51c0.09-1.53,0.63-3.09,1.21-4.53c1.72-4.31,4.5-5.98,8.27-5.12c4.78,1.09,7.19,3.81,7.14,8.46
		c-0.05,5.41-0.48,10.82-0.42,16.23c0.02,1.91,0.67,4,1.59,5.66c2.4,4.3,2.9,8.64,1.17,13.26c-1.76,4.69-2.39,9.22,0.27,13.95
		c0.74,1.32,0.53,3.84-0.16,5.34c-6.09,13.18-5.12,26.44-0.42,39.63c1.05,2.96,1.55,5.11-0.68,7.52c-2.24,2.4-2.84,5.4-2.53,8.74
		c0.46,5.03-0.09,9.86-1.03,14.92c-1.21,6.56-0.47,13.61,0,20.41c0.74,10.66,2.11,21.27,2.88,31.93c0.34,4.69,1.09,8.91,3.49,13.08
		c3.67,6.39,4.88,13.33,1.72,20.66c-1.28,2.98-1.36,5.96,1.24,8.98c1.62,1.87,2.29,5.17,2.4,7.87c0.39,10.2,3.71,19.56,6.81,29
		c3.98,12.1,6.53,24.49,7.21,37.3c0.08,1.48,0.51,2.95,0.77,4.42c0.36,0.03,0.72,0.07,1.08,0.1c0.33-1.14,0.97-2.29,0.94-3.42
		c-0.09-3.71,0.01-7.53-0.76-11.11c-2.23-10.34-2-20.82-2.22-31.29c-0.07-3.27-0.09-6.54-0.2-9.81c-0.18-5.18-1.51-9.87-4.51-14.17
		c-1.43-2.05-2.25-4.84-2.58-7.41c-1.11-8.82-2-17.68-2.73-26.55c-0.34-4.14-0.23-8.34-0.12-12.51c0.09-3.37,1.13-6.31,2.74-9.42
		c2.01-3.88,3.12-8.66,3.33-13.12c0.47-9.89-0.01-19.83,0.16-29.74c0.13-7.6-1.09-14.84-4.46-21.55c-1.64-3.27-1.54-6.16,0.4-9.18
		c1.56-2.42,2.94-4.97,4.43-7.45c0.99-1.63,1.13-2.86-0.58-4.31c-1.14-0.97-2.12-2.7-2.34-4.22c-0.82-5.74-2.08-11.69,3.28-16.15
		c0.58-0.48,0.59-1.87,0.66-2.86c0.49-7.31,0.94-14.62,1.35-21.94c0.07-1.34,0.15-2.78-0.23-4.03c-3.09-10.2,0-20.36,0.09-30.54
		c0.01-1.11,0.72-2.37,1.43-3.28c4.19-5.41,5.66-11.16,2.65-17.8c-1.24-2.72-0.56-5.7,1.42-7.49c2.75-2.48,6.08-4.25,9.17-6.32
		c0.43,0,0.86,0,1.28,0c5.17,2.7,7.05,7.89,6.73,14.18c-0.31,6.09,0.7,12.25,1.04,18.39c0.22,3.89,0.25,7.79,0.42,11.68
		c0.04,0.9-0.01,2.05,0.47,2.64c2.81,3.46,2.65,7.54,0.6,10.7c-4.41,6.81-5.27,14.46-5.83,22.18c-0.36,5.01,0.13,10.12,0.46,15.16
		c0.15,2.18,0.99,3.96,3.63,4.36c3.05,0.47,4.12,2.57,3.03,5.69c-2.12,6.02-6.32,9.72-12.15,11.51c-2.21,0.68-4.33,1.71-6.57,2.27
		c-0.59,0.15-1.47-0.83-2.17-1.36c-0.61-0.46-1.19-1.45-1.72-1.4c-0.66,0.06-1.45,0.82-1.85,1.49c-1.71,2.9-2.98,6.17-5.03,8.75
		c-1.89,2.38-2.7,4.5-1.32,7.27c3.39,6.81,5.15,14.02,4.99,21.73c-0.26,12.61-0.34,25.22-0.85,37.82c-0.11,2.72-1.38,5.59-2.72,8.01
		c-3.02,5.43-4.76,11.05-3.86,17.38c0.4,2.82,1.84,4.15,4.68,3.62c5.96-1.12,12.13-1.12,17.56-4.69c2.01-1.32,4.36-1.41,5.29,1.96
		c0.23,0.81,1.12,1.42,1.71,2.13c0.3-0.09,0.6-0.18,0.9-0.27c0-2.58,0.46-5.28-0.09-7.72c-1.44-6.34-3.82-12.46-4.93-18.85
		c-2.82-16.1-2.73-32.32-0.24-48.47c0.63-4.08,2.53-7.94,3.08-12.02c0.38-2.82-0.68-5.84-0.91-8.78c-0.18-2.41-0.18-4.85,0-7.25
		c0.03-0.48,1.2-0.88,1.84-1.31c0.24,0.66,0.61,1.3,0.7,1.99c0.4,2.84,0.85,5.69,1.03,8.56c0.18,2.86,0.33,5.78,0.03,8.62
		c-0.71,6.69-2.22,13.34-2.45,20.04c-0.38,11.26-0.18,22.56,0.14,33.83c0.11,3.86,0.95,7.81,2.12,11.49
		c1.98,6.25,3.46,12.3,2.8,19.12c-0.44,4.6,1.29,9.43,2.03,14.15c0.53,3.44,0.57,7.05,1.65,10.28c1.29,3.85,1.27,7.45,0.32,11.24
		c-0.52,2.06-1.03,4.15-1.21,6.26c-0.84,9.85,0.11,19.59,2.04,29.24c2.38,11.96,4.83,23.91,7.3,35.85c0.24,1.14,0.8,2.21,1.64,3.21
		c0.04-0.74,0.13-1.48,0.11-2.21c-0.5-15.73,1.09-31.28,3.4-46.8c1.62-10.85,2.16-21.67-1.74-32.36c-1.72-4.71-1.23-9.92,1.42-14.36
		c2.03-3.41,2.43-6.83,0.81-10.26c-3.07-6.52-1.54-12.11,2.28-17.62c3.71-5.36,4.67-11.79,5.6-18.15c1.5-10.3,2.13-20.64,0.45-30.97
		c-0.41-2.52-1.27-5-2.23-7.36c-2.14-5.26-3.65-10.65-3.01-16.4c0.23-2.05,1.31-3.99,2-5.98c0.36,0.06,0.72,0.12,1.08,0.18
		c0.24,0.77,0.63,1.52,0.69,2.31c0.13,1.68,0.12,3.38,0.11,5.07c-0.04,5.54,1.16,10.75,2.46,16.15c1.87,7.73,2.38,16.02,2.25,24.05
		c-0.15,8.75-1.58,17.49-2.73,26.19c-0.23,1.71-1.73,3.22-2.61,4.84c-1.63,2.98-3.49,5.87-4.73,9.03c-0.58,1.49-0.52,3.86,0.24,5.21
		c1.89,3.37,1.97,8.03,6.44,9.73c1.95,0.74,1.65,2.42-0.43,3.22c-0.6,0.23-1.23,0.4-1.86,0.53c-4.59,1-8.26,7.22-6.56,11.82
		c4.25,11.49,4.25,23.42,3.27,35.35c-0.56,6.81-2.23,13.51-3.2,20.3c-0.49,3.44-0.74,6.95-0.77,10.44
		c-0.1,11.05,0.05,22.11-0.11,33.16c-0.03,2.12-0.7,4.39-1.61,6.31c-2.27,4.81-3.84,9.52-1.3,14.81c0.49,1.01,0.24,2.42,0.32,3.65
		c0.11,1.68,0.02,3.4,0.37,5.03c0.9,4.29,1.63,4.65,5.44,3.06c0.99-0.41,2.1-0.72,2.9-1.4c2.84-2.39,4.8-1.23,6.67,1.44
		c1.46,2.09,2.99,4.17,4.79,5.92c0.66,0.64,2.5,0.86,3.21,0.35c1.82-1.33,4.36-2.95,4.71-4.84c0.59-3.27,1.78-5.79,3.61-8.39
		c2.91-4.13,2.6-8.78,0.91-13.75c-0.23,4.24-0.44,8.1-0.64,11.97c-0.41,0.03-0.82,0.07-1.23,0.1c-0.34-0.59-0.89-1.15-0.99-1.78
		c-1.48-9.56-3.66-19.08-4.17-28.71c-1.28-23.83-2.93-47.71,1.28-71.5c1.06-5.97,5.17-9.62,7.54-14.53
		c1.05-2.17,1.48-3.95,1.05-6.32c-0.67-3.75-1.11-7.58-1.27-11.39c-0.13-3.02-0.88-5.4-3.21-7.33c-2.5-2.06-4.78-4.41-7.06-7.56
		c1.24,0.17,2.58,0.11,3.7,0.59c0.93,0.4,1.55,1.51,2.4,2.18c1.99,1.56,3.13,1.02,3.7-1.57c1.4-6.42,1.3-12.92-0.53-19.08
		c-3.41-11.52-2.61-23.2-2-34.89c0.25-4.71,0.79-9.45,1.68-14.08c0.58-3,2.06-5.8,3.08-8.71c0.36-1.03,0.79-2.14,0.77-3.2
		c-0.07-3.49-0.35-6.97-0.52-10.46c-0.16-3.22-1.78-4.61-4.8-4.5c-1.1,0.04-2.21-0.3-3.32-0.46c-0.03-0.3-0.07-0.59-0.1-0.89
		c1.23-0.42,2.44-0.98,3.71-1.25c5.41-1.15,7.31-5.09,3.85-9.45c-6.48-8.17-5.78-17.3-3.97-26.6c0.49-2.5,2.05-4.89,3.53-7.02
		c1.91-2.75,2.06-5.55-0.3-8.16c-1.98-2.19-3.99-2.95-6.69-0.68c-3.04,2.54-7.58-0.25-7.79-3.65c3.38,0,6.84,0.36,10.21-0.08
		c6.52-0.84,8.71-6.86,5-12.64c-2.8-4.36-3.66-9.3-3.07-14.53c0.32-2.8,0.71-5.59,0.87-8.39c0.17-3.02-1.38-4.68-4.21-4.76
		c-1.58-0.05-3.24,0.02-4.74,0.48c-3.71,1.14-5.17,4.63-2.97,7.9c1.71,2.53,1.95,4.59,0.8,7.37c-0.88,2.12-0.75,4.7-1.62,6.82
		c-0.85,2.1-2.72,3.74-3.55,5.84c-0.97,2.46-2.07,5.32-1.72,7.78c0.54,3.81,0.55,7.27-0.7,10.9c-0.49,1.44-0.2,3.27,0.04,4.88
		c0.63,4.17,1.62,8.29,2.09,12.47c0.31,2.77-0.22,5.65-0.01,8.45c0.35,4.79-0.51,8.82-4.61,11.71c-0.77,0.54-1.01,2.32-1.06,3.54
		c-0.14,3.42-0.05,6.85-0.05,10.57c-3.6-2.95-4.83-10.67-1.99-15.04c5.36-8.24,4.92-17.2,3.91-26.35c-0.13-1.21-0.41-2.55-1.05-3.51
		c-2.34-3.5-1.19-6.76,0.06-10.24c0.66-1.85,0.91-4.06,0.7-6.02c-0.54-5.04-1.24-9.86,4-12.99c1.96-1.17,2.95-9.53,1.61-12.58
		c-1.75-3.97-2.42-7.83,0.58-11.36c3.3-3.87,7.66-4.18,12.15-3.2c3.22,0.71,5.49,2.87,5.79,6.39c0.24,2.86,0.34,5.98-0.49,8.65
		c-1.67,5.33-0.3,9.71,2.67,13.83c2.4,3.32,1.91,6.83,0.68,10.28c-1.02,2.86-1.41,5.46-0.28,8.47c1.46,3.87-0.04,7.42-2.45,10.3
		c-2.38,2.83-3.21,5.86-2.97,9.55c0.27,4.16,0.1,8.34,0.28,12.51c0.09,2,0.33,3.89,2.7,4.84c0.92,0.37,1.68,2.33,1.77,3.62
		c0.48,6.85,0.71,13.72,1.08,20.58c0.1,1.8,0.58,3.58,0.58,5.37c0.01,2.33,0.44,5.11-0.57,6.91c-3.99,7.08-4.86,14.92-5.4,22.75
		c-0.53,7.73-0.36,15.53-0.22,23.3c0.04,2.41,0.67,4.94,1.55,7.19c3.1,7.91,2.45,15.83,0.73,23.89c-0.35,1.65-0.04,3.62,0.47,5.27
		c3,9.72,3.5,19.2-2.08,28.16c-3.52,5.64-4.88,12-5.44,18.52c-1.77,20.83-1.93,41.68,0.92,62.43c0.87,6.31,2.78,12.47,4.24,18.69
		c0.62,2.63,1.84,3.44,4.07,1.5c0.89-0.77,1.96-1.59,3.04-1.77c3.75-0.62,6.19-3.11,8.01-6.21c4.32-7.36,8.41-14.87,12.62-22.3
		c2.61-4.61,3.31-9.48,1.84-14.62c-1.4-4.89,0-8.84,3.34-12.27c1.07-1.1,2.04-2.33,3.14-3.39c2.28-2.19,2.97-4.93,3.41-8.09
		c0.59-4.29,1.62-8.57,3.02-12.65c1.02-2.95,3.37-4.79,6.65-5.05c2.72-0.21,4.43-2.01,5.37-4.67c2.13-6.08,4.4-12.12,6.35-18.27
		c0.64-2.01,1.05-4.5,0.52-6.45c-1.71-6.26-1.41-12.22,0.98-18.17c1.17-2.9,2.07-5.93,3.27-8.81c1.86-4.47,5.18-6.66,9.88-6.21
		c-2.9,3.63-9.94,4.2-6.84,11.35c0.52,0.08,1.4,0.21,3.28,0.49c-1.45,1.11-2.17,2.06-3.06,2.29c-3.6,0.92-5.26,3.58-5.32,7.09
		c-0.03,1.96,0.58,4.52,1.83,5.8c2.85,2.93,2.69,5.75,1.28,9.18c-3.52,8.56-6.96,17.16-10.32,25.79c-0.7,1.8-0.96,3.8-1.44,5.77
		c-5.47-3.44-9.65-1.38-11.1,5.32c-0.52,2.41-1.01,4.87-1.15,7.33c-0.08,1.46,0.55,2.96,0.92,4.74c5.63-4.25,9.03-4.48,13.38-1.16
		c2.3,1.75,4.03,3.89,2.47,7.81c-1.25-1.35-2.61-2.61-3.72-4.08c-3.1-4.07-4.03-4.28-8.24-1.77c-1.29,0.77-2.72,1.29-4.13,1.8
		c-4.15,1.52-7.31,4.36-9.16,8.46c-0.65,1.44-0.1,3.49-0.09,5.26c0.01,2.43,0.47,4.97-0.03,7.28c-2.1,9.64-5.67,18.64-11.38,26.61
		c-2.16,3.02-4.19,6.15-6.19,9.29c-2.06,3.23-4.55,5.45-8.49,5.89c-4.74,0.54-7.3,5.67-6.1,10.67c1.01,4.2,1.38,8.57,2.16,12.83
		c0.37,2.05,1.09,4.03,1.54,6.07c0.15,0.65-0.04,1.39-0.07,2.08c-0.73-0.21-1.96-0.23-2.11-0.67c-0.78-2.18-1.46-4.44-1.81-6.74
		c-0.32-2.1-0.09-4.28-0.25-6.41c-0.15-1.95-0.88-3.49-3.47-3.39c-0.19,0.91-0.49,1.84-0.57,2.79c-0.31,3.84-2.06,6.63-5.44,8.08
		c-2.03,0.87-2.57,1.99-2.05,4.37c1.38,6.34,0.24,12.47-1.68,18.59c-2.33,7.42-1.56,8.33,5.85,7.41
		c7.13-0.88,12.69-4.61,16.32-11.17c2.27-4.09,1.8-6.88-1.08-10.47c-0.86-1.07-1.47-2.35-2.2-3.53c0.21-0.29,0.43-0.58,0.64-0.86
		c0.99,0.53,2.33,0.79,2.92,1.63c1.76,2.52,3.24,5.25,4.78,7.93c0.2,0.34,0.3,0.96,0.14,1.28c-2.33,4.61-3.44,10.07-8.23,12.96
		c-4.46,2.69-8.78,5.72-14.31,5.13c-0.58-0.06-1.21,0.29-2,0.5c0.09,0.66,0.04,1.24,0.25,1.68c2.15,4.54,1.27,8.88-1.19,12.81
		c-1.75,2.81-1.56,4.93,0.64,7.14c0.93,0.93,1.75,1.98,2.56,3.03c4.96,6.54,5.75,13.5,2.29,21.16c-2.18,4.84-4.76,9.75-5.61,14.92
		c-2.02,12.29-6.25,23.56-11.55,34.59c-2.24,4.67-3.37,9.93-5.11,14.88c-0.73,2.08-1.71,4.05-2.58,6.07
		C324.36,611.45,324.15,611.45,323.93,611.45z M283.01,454.32c0.69-3.18,1.94-5.69,1.6-7.94c-1.53-10.16-0.88-20.51-4.18-30.61
		c-3.45-10.57-4.74-21.9-7.28-32.82c-3.18-13.69-4.44-27.96-10.7-40.76c-0.29-0.6-0.21-1.64,0.08-2.28
		c2.19-4.89,1.47-9.56-0.57-14.27c-1.7-3.92-3.19-7.94-4.8-11.98c4.63-1.21,5.76-2.36,5.21-6.94c-0.46-3.83-0.96-8.36-3.13-11.12
		c-4.27-5.44-4.32-11.27-4.64-17.73c-0.63-12.7-2.26-25.34-3.54-38c-0.6-5.94-0.51-11.92,2.19-17.18c2.17-4.23,0.39-7.35-0.69-11.23
		c-1.19,1.01-1.98,1.67-3.05,2.58c-0.18-3.79,1.61-6.11,3.73-8.18c4.05-3.96,4.05-4.93,2.53-10.25
		c-3.54-12.39-4.57-24.87-0.12-37.34c0.63-1.78,1.06-3.68,1.27-5.56c0.11-1.01-0.34-2.15-0.71-3.16c-0.43-1.18-0.91-2.39-1.61-3.41
		c-0.87-1.26-1.95-3.28-3-3.32c-2.93-0.12-5.91,0.48-8.83,1.05c-3.43,0.68-6.17,2.59-7.68,6.01c-1.13,2.55-0.91,5.13,1.65,6.42
		c3.43,1.73,3.47,4.32,2.67,7.58c-1.64,6.67-3,13.36-2.29,20.37c0.15,1.47-0.56,3.44-1.52,4.55c-3.14,3.64-3.78,7.95-3.79,12.55
		c-0.01,2.87,0.99,4.72,4.03,4.91c3.2,0.2,6.39,0.58,9.58,0.9c1.07,0.11,2.13,0.3,3.2,0.45c0,0.45-0.01,0.89-0.01,1.34
		c-5.28,0.4-10.57,0.81-15.44,1.18c-1.08,4.27-2.29,7.99-2.87,11.82c-0.3,1.98-0.1,4.62,0.95,6.13c2.6,3.76,3.26,7.98,4.05,12.3
		c0.28,1.55,1.35,2.94,2.21,4.74c-0.67,1.68-2.19,3.88-2.34,6.18c-0.66,10.22-0.93,20.46-1.34,30.69
		c-0.25,6.17-0.29,12.37-0.82,18.51c-0.47,5.31-0.35,10.45,1.04,15.15c7.04-1.92,11.58-10.83,20.25-7c-0.87,0.66-1.9,0.69-2.85,1.01
		c-1.07,0.35-2.61,0.67-2.99,1.49c-1.45,3.13-3.81,3.74-6.8,3.97c-3.34,0.26-5.2,3.12-3.8,5.81c1.75,3.37,1.15,6.71,1.03,10.19
		c-0.14,3.91-0.07,7.87,0.41,11.74c0.35,2.8,2.07,4.74,5.04,5.4c1.2,0.27,2.47,1.6,3.11,2.8c0.81,1.53,1.06,3.41,1.46,5.15
		c2.97,12.79,5.53,25.71,9.04,38.34c1.93,6.92,2.5,13.64,1.66,20.64c-0.47,3.91-1.39,7.8-1.48,11.72
		c-0.15,6.38-0.44,12.88,0.55,19.12c0.96,6.03,9.73,9.52,14.23,6.48C276.34,450.17,279.08,450.42,283.01,454.32z M284.59,496.66
		c0.31,0.25,0.62,0.51,0.93,0.76c-4.79,1-3.75,4.65-4.08,7.65c-0.78,6.97-2.62,13.45-7.41,18.65c-0.68,0.74-1.14,1.71-1.29,1.93
		c2.88,2.47,5.16,4.97,7.89,6.63c2.48,1.51,5.96,3.59,8.12,2.79c4.68-1.73,8.92-4.98,9.34-11.27c0.1-1.5,0.64-3.12,1.43-4.36
		c0.94-1.47,2.31-1.28,2.88,0.48c1.03,3.15,1.86,6.37,2.76,9.5c6.5,0.87,12.57-0.07,18.75-0.74c5.94-0.64,9.15-3.93,11.74-8.52
		c2.56-4.52,4.73-9.31,6.7-14.16c0.8-1.97,0.93-4.42,0.8-6.61c-0.21-3.53-2.81-5.49-6.07-4.65c-4.95,1.28-9.84,2.8-15.17-0.38
		c0.23,1.37,0.27,2.14,0.5,2.83c1.89,5.77,0.95,9.37-3.72,12.92c-5.34,4.06-11.42,5.87-17.89,4.75c-3.25-0.56-6.51-2.11-9.34-3.94
		c-2.57-1.66-3.44-4.73-2.83-8.1c1.24,0.84,2.55,1.74,2.93,2.96c1.1,3.5,3.4,4.51,6.57,5.8c8.19,3.34,14.5-0.07,20.72-4.73
		c2.63-1.97,2.69-5.7,0.55-8.22c-0.52-0.62-0.76-1.57-0.95-2.42c-0.47-2.12-0.78-4.29-1.27-6.4c-0.9-3.9-2.14-7.73-2.73-11.67
		c-0.3-1.99-0.14-4.71,0.95-6.14c2.15-2.84,1.36-5.09,0.15-7.75c-2.49-5.47-1.94-7.16,3.22-10.01c-0.93-1.1-1.8-2.13-2.8-3.32
		c-5.01,5.19-9.97,5.04-15.01,0.53c-3.77-3.37-7.72-2.45-11.6-0.26c-3.13,1.77-5.1,6.36-4.45,10.14c0.6,3.49,2.62,5,5.99,5.4
		c3.58,0.43,5.13,5.18,2.45,8.12c-2.16,2.37-2.62,4.82-2.73,7.8c-0.16,4.1-1.7,8.17,0.19,12.31c0.33,0.72-0.49,2.01-0.78,3.04
		c-0.36-0.02-0.73-0.04-1.09-0.06c-0.32-1.7-0.92-3.39-0.92-5.09c0-4.61,0.09-9.24,0.46-13.83c0.26-3.3-0.3-5.87-2.32-8.68
		c-2.09-2.9-3.51-6.65-4.25-10.25c-1.07-5.2-2.3-6.63-7.12-4.91c-3.74,1.33-7.29,1.36-11,0.29c-1.44-0.41-2.94-0.58-4.43-0.76
		c-5.58-0.67-12.15,7.21-10.86,13.01c0.12,0.54,0.28,1.17,0.64,1.52c3.64,3.61,6.51,7.96,11.47,10.19
		c4.97,2.23,8.75,6.12,10.94,11.77c0.77,1.98,3.42,3.59,5.55,4.43C279.38,496.54,282.07,496.36,284.59,496.66z M315.42,449.54
		c0-1.28,0.08-2.4-0.01-3.5c-0.59-6.87-1.09-13.7,1.43-20.35c0.33-0.86,0.03-2.26-0.43-3.14c-4.06-7.6-6.04-15.82-6.88-24.43
		c-1.62-16.46-3.6-32.89-4.81-49.38c-0.41-5.58,1.1-11.31,1.7-16.98c0.26-2.45,0.85-4.96,0.58-7.36c-0.53-4.76-1.48-9.48-2.38-14.18
		c-0.4-2.08-0.96-4.16-1.72-6.13c-1.62-4.21-4.75-6.6-9.02-6.13c-4.86,0.53-9.73,1.47-14.42,2.89c-1.69,0.51-3.63,2.69-4.1,4.5
		c-0.7,2.67-0.18,5.69-0.18,8.87c1.7-1.45,3.16-2.68,4.62-3.92c0.22,0.2,0.45,0.4,0.67,0.61c-0.72,1.7-1.25,3.53-2.2,5.07
		c-2.98,4.83-2.44,9.57,0.58,13.88c3.54,5.06,4.99,10.58,4.95,16.75c-0.03,3.83,0.24,7.66,0.27,11.49
		c0.11,14.21,0.52,28.4,3.29,42.37c0.8,4.05,0.53,7.65-1.3,11.35c-1.64,3.31-1.83,6.78,0.04,10.34c0.88,1.69,1.01,3.88,1.21,5.88
		c0.32,3.13,0.38,6.3,0.6,9.44c0.44,6.08,2.04,7.81,7.67,8.94c2.07,0.41,4.53,0.75,5.98,2.11
		C306.08,452.8,310.65,450.75,315.42,449.54z M215.77,234.46c-0.7-8.49-1.38-16.67-2.08-25.06c-4.07,1.11-2.13,5.16-4.01,7.08
		c-1.49-2.76-0.44-7.61,2.71-10.14c2.98-2.39,2.95-5.39,2.95-9.23c-3.46,0.41-6.71,0.8-10.57,1.26c3.1-4.39,7.35-4.35,10.9-5.17
		c-0.41-11.16-0.8-22.02-1.2-32.87c-0.01-0.33-0.04-0.78-0.24-0.97c-0.73-0.7-1.46-1.74-2.31-1.89c-4.35-0.75-7.57,1.94-8.04,6.58
		c-0.16,1.56-0.11,3.15-0.11,4.73c-0.02,6.39-0.66,12.51-4.57,17.9c-2.45,3.38-1.56,6.73,1.65,9.33c0.81,0.65,1.47,1.51,2.2,2.28
		c-5.6-1.37-7.9-0.56-9.32,3.55c-1.24,3.58-0.19,4.9,5.42,7.18c0,5.69,0.06,11.17-0.02,16.65c-0.04,2.7-0.07,5.45-0.57,8.08
		c-0.47,2.48-0.96,5.48-2.51,7.1c-2.66,2.78-1.89,5.57-1.8,8.7c2.33,0.23,4.48,0.01,6.32,0.71c3.05,1.16,5.58,0.39,7.71-1.67
		c2.76-2.67,5.87-3.96,9.56-4.11c0.76-0.03,2.13-0.84,2.13-1.31c0.02-2.67-0.29-5.35-0.49-8.02c-1.68,2.99-3.03,4.3-5.69,1.58
		c-0.66-0.67-2-0.57-3.01-0.9c-1.1-0.37-2.18-0.83-3.27-1.25c0.09-0.36,0.17-0.72,0.26-1.08
		C210.55,233.83,213.3,234.16,215.77,234.46z M291.29,188.96c0.01,0.08,0.03,0.17,0.04,0.25c1.88-0.37,3.82-0.54,5.63-1.15
		c3.82-1.28,5.69-4.45,5.07-8.6c-0.13-0.84-1.1-2.14-1.75-2.19c-2.94-0.2-3.61-2.46-3.68-4.67c-0.31-10.11-0.73-20.25-0.36-30.34
		c0.11-3.15,2.39-6.31,4.01-9.26c1.81-3.3,2.42-8.31,0.45-10.2c-2.66-2.56-5.39-0.6-8.02,0.49c-0.1,0.04-0.2,0.09-0.29,0.15
		c-2.28,1.61-4.64,2.05-7.27,0.87c-2.08-0.93-3.79-0.19-3.94,2.27c-0.21,3.39-0.13,6.83,0.14,10.22c0.2,2.54,1.45,5.08,1.28,7.54
		c-0.57,8.07-1.52,16.11-2.46,24.14c-0.15,1.32-1.11,2.51-1.46,3.84c-1.02,3.81-2.37,7.61-2.7,11.5c-0.22,2.56,1.43,5.03,4.5,5.12
		C284.07,189.03,287.68,188.96,291.29,188.96z M248.64,489.68c-1.09-0.89-1.38-1.2-1.74-1.4c-0.78-0.44-1.59-0.83-2.39-1.25
		c-0.36,0.9-0.9,1.77-1.04,2.71c-0.17,1.09-0.06,2.25,0.06,3.36c0.4,3.81,0.96,7.59,1.27,11.41c0.48,5.84,3.19,8.5,8.83,7.98
		c3-0.28,4.14,0.75,4.59,3.94c0.25,1.79,1.73,3.82,3.21,4.87c1.96,1.39,11.27-2.05,12.61-4.18c0.17-0.27,0.34-0.61,0.35-0.92
		c0.2-7.15,1.49-14.48-4.14-20.4c-2.1-2.21-3.99-4.76-5.46-7.46c-1.86-3.41-4.66-5.58-7.66-7.49c-2.33-1.48-5-2.37-7.66-3.59
		C246.07,480.71,248.28,484.93,248.64,489.68z M328.35,493.78c6.52-0.6,10.08-2.9,10.76-9.17c0.27-2.51,1.21-4.97,2.04-7.39
		c1.43-4.15-0.82-12.17-3.97-14.51c-1.57-1.17-3.07-2.62-4.14-4.28c-1.56-2.41-3.16-2.78-5.71-1.73c-1.85,0.76-4.07,1.02-6.05,0.78
		c-3.22-0.4-4.31,0.57-3.46,3.94c0.22,0.86,0.53,1.75,1,2.47c2.21,3.34,2.43,6.52-0.11,9.86c-1.98,2.61-1.69,5.33,0.02,8.12
		c1.08,1.76,2.05,3.73,2.51,5.75C322.24,491.95,324.14,493.79,328.35,493.78z M245.85,142.17c2.93-0.9,6.32-1.12,8.7-2.86
		c4.76-3.49,5.09-7.51,1.6-13.88c-2.24-4.09-3.08-7.99-2.53-12.51c0.45-3.68,0.79-7.4,0.89-11.1c0.03-1.14-0.63-2.92-1.46-3.33
		c-2.39-1.21-5.08-2.12-7.62-0.28c-2.26,1.63-2.19,4.05-1.98,6.66c0.58,7.04,0.55,14.29-3.3,20.25c-2.35,3.63-2.88,6.58-1.7,10.54
		C240.16,141.38,240,141.43,245.85,142.17z M281.87,121.27c3.39,1.15,6.5,1.03,9.74-0.46c1.87-0.86,4.1-0.86,6.16-1.24
		c0.9-0.17,2.55-0.23,2.59-0.54c0.41-2.8,1.66-6.38,0.52-8.33c-2.9-4.95-3.4-10.12-3.34-15.52c0.04-3.7,0.56-7.39,0.78-11.09
		c0.26-4.38-2.1-6.27-5.77-4.23c-2.49,1.39-4.66,3.52-6.73,5.59c-0.56,0.56-0.65,2.38-0.21,3.17c3.39,6.19,3.48,12.8-1.08,18.39
		C280.88,111.5,281.37,116.2,281.87,121.27z M241.23,456c-0.38,0.41-0.75,0.81-1.13,1.22c1.81,1.73,3.63,3.47,5.44,5.2
		c0.33-0.38,0.66-0.76,0.99-1.14C244.76,459.52,243,457.76,241.23,456z"/>
	<path d="M430.03,283.87c0.98-3.11,2.03-6.01,2.79-8.99c0.74-2.88,1.31-5.83,1.72-8.78c0.64-4.62,2.66-8.27,6.29-10.93
		c3.13-2.29,6.3-2.35,8.89-0.14c2.69,2.3,3.73,6.37,2.47,9.71c-0.2,0.52-0.34,1.15-0.71,1.5c-3.65,3.48-3.46,7.91-3.06,12.51
		c0.12,1.37,0.02,3.35-0.79,4.13c-2.48,2.42-1.88,5.15-1.73,8.11c0.4,7.74,0.76,15.5,0.6,23.23c-0.08,4.16-1.26,8.17-5.51,10.33
		c-1.2,0.61-1.97,2.59-2.54,4.1c-2.61,6.89-4.98,13.89-7.62,20.77c-1.68,4.38-2.47,8.2,0.6,12.63c3.42,4.93-0.81,16.64-6.55,18.98
		c-2.89,1.17-3.65,2.86-4.02,5.94c-0.52,4.4-1.59,8.86-3.25,12.92c-0.89,2.17-3.5,3.57-5.34,5.3c-1.1,1.04-2.43,1.89-3.29,3.12
		c-4.53,6.43-8.75,13-10.78,20.95c-0.96,3.74-2.85,7.32-4.83,10.64c-3.59,6.01-5.2,12.49-5.55,19.5
		c-0.35,7.02-4.84,12.55-10.84,13.71c-2.51,0.49-4.84,0.16-7.32-2.93c1.72,0.11,2.7-0.09,3.43,0.26c3.2,1.55,5.64,0.32,7.69-2.18
		c2.86-3.49,3.95-7.74,4.05-12.22c0.12-5.21,1.56-9.75,4.05-14.32c3.66-6.7,6.44-13.92,9.73-20.84c2.1-4.42,4.07-9,6.82-12.95
		c1.94-2.78,5.19-4.5,7.67-6.9c1.21-1.17,2.51-2.71,2.87-4.31c1.18-5.36,1.93-10.82,2.9-16.23c0.15-0.83,0.6-1.6,0.93-2.43
		c3.1,2.19,5.12,1.89,7.14-1.17c2.29-3.46,3.38-7.37,2.37-11.52c-0.35-1.43-1.8-2.54-2.69-3.84c-0.7-1.03-1.96-2.24-1.83-3.2
		c0.4-2.97,0.76-6.23,2.17-8.72c4.29-7.61,7.73-15.46,9-24.29c0.15-1.03,1.14-2.38,2.05-2.76c3.61-1.51,5.21-4.67,5.31-8.2
		c0.25-8.52-0.13-17.07-0.09-25.6c0.01-2,0.8-3.99,1.08-6c0.39-2.87,0.84-5.76,0.91-8.65c0.08-3.44,0.23-6.57,2.89-9.25
		c2.08-2.09,1.69-5.77-0.17-7.28c-1.82-1.47-5.4-1.05-6.87,1.39c-1.51,2.52-2.55,5.42-3.4,8.29c-1.32,4.4-2.19,8.94-3.47,13.35
		C433.62,282.48,432.62,284.34,430.03,283.87z"/>
	<path d="M292.01,207.99c-2.93,1.55-5.82,1.41-8.73,0.83c-0.4-0.08-1.04-0.89-0.97-1.07c0.28-0.65,0.71-1.38,1.28-1.73
		C285.79,204.66,289.5,205.48,292.01,207.99z"/>
	<path d="M411.21,388.59c-1.03-0.7-1.94-1.33-2.95-2.02c-0.33,0.57-0.74,1.3-1.15,2.02c-0.29,0.02-0.59,0.04-0.88,0.07
		c-0.27-1.48-0.72-2.97-0.7-4.44c0.01-0.52,1.28-1.55,1.81-1.45C411.02,383.46,412.1,385.05,411.21,388.59z"/>
	<path d="M329.46,297.68c3.12-4.01,7.38-3.99,9.28,0C335.68,297.68,332.84,297.68,329.46,297.68z"/>
	<path d="M339.48,325.07c3.45-0.87,6.73,0.98,7.34,3.66c0.11,0.46,0.03,1.2-0.26,1.46c-0.3,0.27-1.13,0.37-1.41,0.13
		C343.33,328.75,341.61,327.07,339.48,325.07z"/>
	<path d="M340.95,131.58c0.92,2.12,1.84,4.24,2.76,6.36c-0.2,0.3-0.4,0.6-0.61,0.9c-1.24-0.66-3.07-1.02-3.56-2.07
		c-0.62-1.35-0.15-3.25-0.15-4.92C339.91,131.76,340.43,131.67,340.95,131.58z"/>
	<path d="M344.14,206.66c-2.08,0.43-4.11,0.46-4.91-2.16c-0.21-0.67,0.55-1.67,0.86-2.52c1.59,1.17,3.19,2.34,4.78,3.51
		C344.63,205.88,344.39,206.27,344.14,206.66z"/>
	<path d="M369.29,460.96c2.07,1.14,3.07,1.68,4.07,2.23c0.86,0.47,1.71,0.94,3.01,1.66c-2.76,2.1-4.55,0.48-6.22-0.57
		C369.63,463.96,369.69,462.63,369.29,460.96z"/>
	<path d="M433.51,304.03c-2.44-1.68-2.82-3.02-1.03-6.82c0.66,2.16,1.32,4.32,1.98,6.47C434.15,303.8,433.83,303.91,433.51,304.03z"
		/>
	<path d="M344.28,111.26c1.32,0.44,2.65,0.87,3.97,1.31c-0.32,0.73-0.64,1.46-0.96,2.19c-1.2-0.67-2.4-1.33-3.6-2
		C343.89,112.27,344.08,111.76,344.28,111.26z"/>
	<path d="M310.71,542.54c3.71,2.57,3.51,7.25,0,10.98C310.71,549.8,310.71,546.43,310.71,542.54z"/>
	<path d="M322.17,557.99c-0.2-2.66-0.5-5.32-0.51-7.98c0-0.6,0.96-1.21,1.49-1.82c0.46,0.64,1.33,1.29,1.32,1.92
		c-0.04,2.59-0.35,5.18-0.56,7.76C323.32,557.92,322.75,557.95,322.17,557.99z"/>
	<path d="M315.66,555.71c0-3.26-0.03-6.53,0.05-9.79c0.01-0.34,0.78-1.01,1.01-0.93c0.52,0.19,1.32,0.76,1.3,1.15
		c-0.14,3.23-0.44,6.44-0.69,9.66C316.77,555.77,316.21,555.74,315.66,555.71z"/>
	<path d="M305.23,544.3c0.66,0.65,1.21,0.93,1.24,1.25c0.17,1.87,0.22,3.75,0.31,5.63c-0.55-0.14-1.42-0.09-1.61-0.44
		C304.11,548.78,303.43,546.73,305.23,544.3z"/>
	<path d="M218.6,318.64c-2.27,0.57-4.53,1.13-7.08,1.77c0.5-3.13,2.59-3.44,4.49-3.68c0.95-0.12,1.99,0.51,2.98,0.8
		C218.87,317.9,218.74,318.27,218.6,318.64z"/>
	<path d="M283.11,559.77c0.23-2.35,0.46-4.7,0.69-7.04c0.58,0.05,1.16,0.1,1.74,0.15c-0.16,2.35-0.32,4.71-0.48,7.06
		C284.41,559.88,283.76,559.82,283.11,559.77z"/>
	<path d="M215.11,271.37c-0.76,0.99-1.53,1.99-2.29,2.98c-0.8-0.93-1.6-1.86-2.4-2.79c0.14-0.32,0.28-0.63,0.42-0.95
		c1.2-0.11,2.39-0.22,3.59-0.32C214.66,270.65,214.88,271.01,215.11,271.37z"/>
	<path d="M213.55,338.87c2.19-1.46,4.09-1.2,5.53,2.01c-1.88-0.26-3.75-0.51-5.63-0.77C213.48,339.7,213.52,339.29,213.55,338.87z"
		/>
	<path class="st0" d="M283.01,454.32c-3.94-3.9-6.67-4.15-10.1-1.83c-4.5,3.05-13.27-0.45-14.23-6.48
		c-0.99-6.24-0.7-12.74-0.55-19.12c0.09-3.92,1-7.81,1.48-11.72c0.84-7,0.27-13.72-1.66-20.64c-3.51-12.62-6.07-25.54-9.04-38.34
		c-0.41-1.75-0.65-3.62-1.46-5.15c-0.64-1.2-1.91-2.53-3.11-2.8c-2.97-0.67-4.69-2.6-5.04-5.4c-0.49-3.87-0.55-7.83-0.41-11.74
		c0.12-3.48,0.72-6.82-1.03-10.19c-1.4-2.69,0.46-5.54,3.8-5.81c2.99-0.23,5.35-0.84,6.8-3.97c0.38-0.82,1.93-1.14,2.99-1.49
		c0.95-0.31,1.99-0.35,2.85-1.01c-8.67-3.83-13.21,5.08-20.25,7c-1.39-4.7-1.5-9.84-1.04-15.15c0.54-6.15,0.58-12.34,0.82-18.51
		c0.41-10.23,0.68-20.48,1.34-30.69c0.15-2.3,1.67-4.5,2.34-6.18c-0.87-1.8-1.93-3.19-2.21-4.74c-0.79-4.32-1.44-8.54-4.05-12.3
		c-1.05-1.51-1.25-4.16-0.95-6.13c0.58-3.83,1.79-7.55,2.87-11.82c4.87-0.37,10.16-0.77,15.44-1.18c0-0.45,0.01-0.89,0.01-1.34
		c-1.07-0.15-2.13-0.34-3.2-0.45c-3.19-0.33-6.38-0.7-9.58-0.9c-3.03-0.19-4.04-2.04-4.03-4.91c0.02-4.6,0.65-8.91,3.79-12.55
		c0.96-1.11,1.67-3.08,1.52-4.55c-0.72-7.01,0.64-13.7,2.29-20.37c0.8-3.26,0.76-5.85-2.67-7.58c-2.55-1.29-2.77-3.86-1.65-6.42
		c1.51-3.43,4.25-5.34,7.68-6.01c2.92-0.58,5.9-1.17,8.83-1.05c1.05,0.04,2.13,2.06,3,3.32c0.7,1.02,1.18,2.23,1.61,3.41
		c0.37,1.01,0.82,2.14,0.71,3.16c-0.21,1.88-0.63,3.79-1.27,5.56c-4.46,12.48-3.42,24.96,0.12,37.34c1.52,5.32,1.52,6.29-2.53,10.25
		c-2.12,2.07-3.91,4.4-3.73,8.18c1.07-0.91,1.86-1.57,3.05-2.58c1.08,3.88,2.86,7,0.69,11.23c-2.7,5.25-2.79,11.24-2.19,17.18
		c1.28,12.66,2.91,25.31,3.54,38c0.32,6.46,0.37,12.28,4.64,17.73c2.16,2.76,2.67,7.28,3.13,11.12c0.55,4.59-0.58,5.73-5.21,6.94
		c1.61,4.04,3.11,8.06,4.8,11.98c2.04,4.71,2.76,9.39,0.57,14.27c-0.29,0.64-0.37,1.68-0.08,2.28c6.27,12.8,7.52,27.07,10.7,40.76
		c2.54,10.92,3.82,22.26,7.28,32.82c3.3,10.1,2.64,20.45,4.18,30.61C284.96,448.62,283.7,451.14,283.01,454.32z"/>
	<path class="st0" d="M284.59,496.66c-2.52-0.3-5.21-0.12-7.51-1.04c-2.13-0.85-4.78-2.45-5.55-4.43
		c-2.18-5.65-5.97-9.54-10.94-11.77c-4.96-2.22-7.83-6.58-11.47-10.19c-0.35-0.35-0.52-0.99-0.64-1.52
		c-1.29-5.8,5.28-13.68,10.86-13.01c1.49,0.18,2.99,0.35,4.43,0.76c3.71,1.07,7.26,1.04,11-0.29c4.82-1.71,6.05-0.29,7.12,4.91
		c0.74,3.6,2.16,7.35,4.25,10.25c2.02,2.81,2.59,5.38,2.32,8.68c-0.37,4.59-0.46,9.22-0.46,13.83c0,1.7,0.6,3.39,0.92,5.09
		c0.36,0.02,0.73,0.04,1.09,0.06c0.29-1.03,1.11-2.32,0.78-3.04c-1.88-4.14-0.35-8.21-0.19-12.31c0.12-2.98,0.57-5.43,2.73-7.8
		c2.68-2.94,1.14-7.69-2.45-8.12c-3.37-0.41-5.38-1.91-5.99-5.4c-0.65-3.78,1.32-8.37,4.45-10.14c3.88-2.19,7.83-3.11,11.6,0.26
		c5.04,4.51,9.99,4.66,15.01-0.53c1,1.19,1.88,2.22,2.8,3.32c-5.17,2.85-5.71,4.54-3.22,10.01c1.21,2.66,2.01,4.92-0.15,7.75
		c-1.09,1.43-1.25,4.15-0.95,6.14c0.59,3.94,1.83,7.78,2.73,11.67c0.49,2.12,0.8,4.28,1.27,6.4c0.19,0.84,0.43,1.8,0.95,2.42
		c2.14,2.52,2.08,6.25-0.55,8.22c-6.22,4.66-12.53,8.07-20.72,4.73c-3.17-1.29-5.47-2.3-6.57-5.8c-0.38-1.22-1.69-2.12-2.93-2.96
		c-0.61,3.36,0.26,6.43,2.83,8.1c2.83,1.83,6.09,3.38,9.34,3.94c6.46,1.11,12.55-0.69,17.89-4.75c4.67-3.55,5.62-7.15,3.72-12.92
		c-0.23-0.69-0.26-1.46-0.5-2.83c5.32,3.19,10.21,1.66,15.17,0.38c3.26-0.84,5.86,1.12,6.07,4.65c0.13,2.19,0,4.64-0.8,6.61
		c-1.97,4.84-4.14,9.64-6.7,14.16c-2.6,4.59-5.81,7.88-11.74,8.52c-6.19,0.67-12.25,1.61-18.75,0.74c-0.9-3.13-1.73-6.35-2.76-9.5
		c-0.58-1.76-1.94-1.95-2.88-0.48c-0.79,1.24-1.33,2.87-1.43,4.36c-0.42,6.29-4.66,9.54-9.34,11.27c-2.16,0.8-5.64-1.29-8.12-2.79
		c-2.74-1.66-5.02-4.15-7.89-6.63c0.14-0.22,0.6-1.18,1.29-1.93c4.79-5.21,6.63-11.69,7.41-18.65c0.34-3-0.7-6.66,4.08-7.65
		C285.2,497.17,284.9,496.92,284.59,496.66z M300.68,502.57c1.56-1.2,2.37-1.82,3.28-2.51c0.62,0.56,1.19,1.45,1.9,1.59
		c0.51,0.1,1.19-0.79,1.8-1.24c-0.63-0.66-1.23-1.81-1.91-1.87c-1.51-0.15-3.11,0.09-4.56,0.56
		C300.82,499.2,300.91,500.82,300.68,502.57z"/>
	<path class="st0" d="M315.42,449.54c-4.77,1.21-9.34,3.26-13.87-1.02c-1.44-1.36-3.91-1.7-5.98-2.11
		c-5.63-1.13-7.23-2.86-7.67-8.94c-0.23-3.15-0.29-6.31-0.6-9.44c-0.2-1.99-0.33-4.19-1.21-5.88c-1.86-3.56-1.68-7.03-0.04-10.34
		c1.84-3.7,2.11-7.31,1.3-11.35c-2.77-13.97-3.18-28.16-3.29-42.37c-0.03-3.83-0.3-7.66-0.27-11.49c0.04-6.16-1.41-11.69-4.95-16.75
		c-3.02-4.31-3.56-9.05-0.58-13.88c0.95-1.54,1.48-3.37,2.2-5.07c-0.22-0.2-0.45-0.4-0.67-0.61c-1.46,1.24-2.91,2.47-4.62,3.92
		c0-3.18-0.52-6.2,0.18-8.87c0.47-1.81,2.41-3.99,4.1-4.5c4.69-1.42,9.56-2.35,14.42-2.89c4.27-0.47,7.39,1.93,9.02,6.13
		c0.76,1.97,1.32,4.05,1.72,6.13c0.9,4.71,1.86,9.42,2.38,14.18c0.27,2.4-0.32,4.91-0.58,7.36c-0.6,5.67-2.11,11.4-1.7,16.98
		c1.21,16.49,3.19,32.92,4.81,49.38c0.85,8.61,2.82,16.82,6.88,24.43c0.47,0.88,0.76,2.28,0.43,3.14
		c-2.52,6.65-2.02,13.49-1.43,20.35C315.5,447.15,315.42,448.27,315.42,449.54z M295.49,315.1c0.37-0.4,0.73-0.79,1.1-1.19
		c-0.91-1.25-1.62-2.8-2.79-3.66c-0.82-0.61-2.26-0.29-3.42-0.38c-0.13,0.48-0.27,0.97-0.4,1.45
		C291.82,312.58,293.66,313.84,295.49,315.1z M281.98,316.48c3.38,2.39,4.88-1.75,7.41-1.43
		C286.82,312.97,284.9,313.37,281.98,316.48z"/>
	<path class="st0" d="M215.77,234.46c-2.47-0.3-5.22-0.62-7.97-0.95c-0.09,0.36-0.17,0.72-0.26,1.08c1.09,0.42,2.16,0.88,3.27,1.25
		c1.01,0.33,2.35,0.23,3.01,0.9c2.66,2.72,4,1.41,5.69-1.58c0.2,2.67,0.5,5.35,0.49,8.02c0,0.46-1.37,1.28-2.13,1.31
		c-3.69,0.15-6.8,1.44-9.56,4.11c-2.13,2.06-4.66,2.84-7.71,1.67c-1.84-0.7-4-0.48-6.32-0.71c-0.09-3.13-0.86-5.92,1.8-8.7
		c1.56-1.63,2.04-4.62,2.51-7.1c0.5-2.63,0.54-5.38,0.57-8.08c0.08-5.48,0.02-10.97,0.02-16.65c-5.61-2.28-6.67-3.6-5.42-7.18
		c1.42-4.11,3.72-4.92,9.32-3.55c-0.73-0.76-1.39-1.62-2.2-2.28c-3.21-2.59-4.1-5.95-1.65-9.33c3.91-5.4,4.55-11.51,4.57-17.9
		c0.01-1.58-0.05-3.17,0.11-4.73c0.48-4.64,3.69-7.32,8.04-6.58c0.85,0.15,1.58,1.19,2.31,1.89c0.2,0.19,0.23,0.63,0.24,0.97
		c0.4,10.85,0.8,21.71,1.2,32.87c-3.55,0.82-7.8,0.78-10.9,5.17c3.86-0.46,7.11-0.85,10.57-1.26c0,3.84,0.02,6.84-2.95,9.23
		c-3.15,2.53-4.2,7.38-2.71,10.14c1.87-1.92-0.06-5.97,4.01-7.08C214.39,217.79,215.06,225.97,215.77,234.46z M210.33,219.78
		c-2.58,2.41-2.61,4.33,0,7.29C210.33,224.46,210.33,222.23,210.33,219.78z"/>
	<path class="st0" d="M291.29,188.96c-3.61,0-7.22,0.08-10.83-0.02c-3.07-0.09-4.72-2.55-4.5-5.12c0.33-3.89,1.68-7.69,2.7-11.5
		c0.35-1.32,1.31-2.52,1.46-3.84c0.94-8.03,1.89-16.07,2.46-24.14c0.17-2.46-1.07-5-1.28-7.54c-0.27-3.39-0.35-6.83-0.14-10.22
		c0.15-2.46,1.87-3.2,3.94-2.27c2.64,1.18,4.99,0.74,7.27-0.87c0.09-0.06,0.19-0.11,0.29-0.15c2.63-1.09,5.36-3.05,8.02-0.49
		c1.96,1.89,1.35,6.9-0.45,10.2c-1.62,2.95-3.9,6.12-4.01,9.26c-0.37,10.1,0.05,20.23,0.36,30.34c0.07,2.21,0.74,4.47,3.68,4.67
		c0.65,0.04,1.62,1.35,1.75,2.19c0.62,4.15-1.25,7.31-5.07,8.6c-1.81,0.61-3.75,0.78-5.63,1.15
		C291.32,189.12,291.3,189.04,291.29,188.96z M296.66,180.55c0.06-0.47,0.13-0.95,0.19-1.42c-1.63-0.63-3.23-1.44-4.92-1.79
		c-0.6-0.12-1.4,0.87-2.11,1.35c0.55,0.62,1.05,1.69,1.67,1.78C293.19,180.71,294.94,180.55,296.66,180.55z M286.35,140.93
		c2.66-3.56,2.77-4.95,0.56-7.88C286.71,135.86,286.57,137.92,286.35,140.93z"/>
	<path class="st0" d="M248.64,489.68c-0.36-4.75-2.57-8.97,0.83-12.41c2.66,1.22,5.33,2.11,7.66,3.59c3,1.9,5.8,4.08,7.66,7.49
		c1.47,2.7,3.37,5.25,5.46,7.46c5.63,5.92,4.34,13.25,4.14,20.4c-0.01,0.31-0.18,0.65-0.35,0.92c-1.34,2.13-10.65,5.57-12.61,4.18
		c-1.48-1.05-2.96-3.08-3.21-4.87c-0.45-3.19-1.59-4.22-4.59-3.94c-5.64,0.52-8.35-2.14-8.83-7.98c-0.31-3.81-0.87-7.6-1.27-11.41
		c-0.12-1.11-0.22-2.27-0.06-3.36c0.14-0.94,0.68-1.81,1.04-2.71c0.8,0.41,1.61,0.8,2.39,1.25
		C247.26,488.48,247.56,488.79,248.64,489.68z M248.92,501.43c0.68-0.24,1.37-0.47,2.05-0.71c-0.52-1.48-1.01-2.99-1.64-4.42
		c-0.06-0.13-1.05,0.18-1.6,0.29C248.13,498.2,248.53,499.82,248.92,501.43z"/>
	<path class="st0" d="M328.35,493.78c-4.21,0-6.11-1.84-7.1-6.16c-0.46-2.02-1.43-3.99-2.51-5.75c-1.71-2.79-2-5.51-0.02-8.12
		c2.53-3.34,2.31-6.52,0.11-9.86c-0.48-0.72-0.79-1.61-1-2.47c-0.85-3.37,0.25-4.34,3.46-3.94c1.97,0.25,4.2-0.02,6.05-0.78
		c2.55-1.04,4.14-0.68,5.71,1.73c1.07,1.66,2.58,3.11,4.14,4.28c3.15,2.34,5.4,10.36,3.97,14.51c-0.83,2.41-1.77,4.87-2.04,7.39
		C338.43,490.89,334.87,493.18,328.35,493.78z"/>
	<path class="st0" d="M245.85,142.17c-5.85-0.73-5.69-0.79-7.4-6.51c-1.18-3.96-0.65-6.92,1.7-10.54c3.86-5.96,3.88-13.21,3.3-20.25
		c-0.21-2.61-0.28-5.03,1.98-6.66c2.54-1.84,5.23-0.93,7.62,0.28c0.83,0.42,1.49,2.2,1.46,3.33c-0.1,3.71-0.45,7.42-0.89,11.1
		c-0.55,4.52,0.3,8.42,2.53,12.51c3.49,6.37,3.17,10.39-1.6,13.88C252.17,141.05,248.78,141.26,245.85,142.17z M247.77,133.02
		c-0.03-0.44-0.07-0.88-0.1-1.33c-2.4-2.24-3.96,0.27-5.64,2.23C243.95,133.63,245.86,133.32,247.77,133.02z"/>
	<path class="st0" d="M281.87,121.27c-0.51-5.07-1-9.77,2.67-14.26c4.56-5.59,4.48-12.19,1.08-18.39c-0.43-0.79-0.34-2.61,0.21-3.17
		c2.07-2.07,4.24-4.2,6.73-5.59c3.67-2.05,6.03-0.16,5.77,4.23c-0.22,3.7-0.74,7.39-0.78,11.09c-0.06,5.41,0.44,10.58,3.34,15.52
		c1.14,1.95-0.11,5.53-0.52,8.33c-0.05,0.31-1.69,0.37-2.59,0.54c-2.07,0.39-4.29,0.38-6.16,1.24
		C288.37,122.3,285.26,122.41,281.87,121.27z M297.09,111.85c-1.98-1.15-3.46-2.01-4.95-2.87c-0.13,0.75-0.6,1.72-0.32,2.21
		C292.84,112.93,294.28,113.81,297.09,111.85z"/>
	<path class="st0" d="M241.23,456c1.77,1.76,3.54,3.52,5.31,5.28c-0.33,0.38-0.66,0.76-0.99,1.14c-1.81-1.73-3.63-3.47-5.44-5.2
		C240.47,456.82,240.85,456.41,241.23,456z"/>
	<path d="M300.68,502.57c0.22-1.75,0.14-3.37,0.5-3.49c1.45-0.47,3.05-0.7,4.56-0.56c0.69,0.07,1.28,1.22,1.91,1.87
		c-0.61,0.45-1.29,1.35-1.8,1.24c-0.7-0.14-1.27-1.03-1.9-1.59C303.05,500.75,302.24,501.37,300.68,502.57z"/>
	<path d="M295.49,315.1c-1.84-1.26-3.67-2.52-5.51-3.78c0.13-0.48,0.27-0.97,0.4-1.45c1.16,0.09,2.6-0.23,3.42,0.38
		c1.17,0.86,1.88,2.41,2.79,3.66C296.22,314.31,295.86,314.7,295.49,315.1z"/>
	<path d="M281.98,316.48c2.92-3.11,4.84-3.51,7.41-1.43C286.86,314.73,285.36,318.86,281.98,316.48z"/>
	<path d="M210.33,219.78c0,2.45,0,4.68,0,7.29C207.72,224.11,207.75,222.19,210.33,219.78z"/>
	<path d="M296.66,180.55c-1.73,0-3.47,0.16-5.17-0.09c-0.62-0.09-1.12-1.16-1.67-1.78c0.71-0.48,1.52-1.48,2.11-1.35
		c1.69,0.35,3.29,1.16,4.92,1.79C296.79,179.6,296.73,180.07,296.66,180.55z"/>
	<path d="M286.35,140.93c0.22-3.01,0.36-5.07,0.56-7.88C289.12,135.98,289.01,137.37,286.35,140.93z"/>
	<path d="M248.92,501.43c-0.4-1.61-0.79-3.22-1.19-4.84c0.56-0.11,1.55-0.43,1.6-0.29c0.63,1.43,1.11,2.93,1.64,4.42
		C250.29,500.95,249.61,501.19,248.92,501.43z"/>
	<path d="M247.77,133.02c-1.91,0.3-3.83,0.6-5.74,0.91c1.68-1.96,3.24-4.47,5.64-2.23C247.71,132.14,247.74,132.58,247.77,133.02z"
		/>
	<path d="M297.09,111.85c-2.81,1.97-4.24,1.09-5.26-0.66c-0.28-0.48,0.19-1.46,0.32-2.21C293.62,109.84,295.11,110.7,297.09,111.85z
		"/>
</g>
<text transform="matrix(0.9609 0 0 1 184.292 714.2178)" class="st1 st2">5A BOIZ</text>
</svg>
